<svg xmlns="http://www.w3.org/2000/svg" viewBox="0 0 2732 2732" width="2732" height="2732">
  <rect fill="#ffffff" width="2732" height="2732"/>
  <g transform="translate(866,866)">
    <svg viewBox="0 0 512 512" width="1000" height="1000">

  <defs>
    <!-- Background gradient -->
    <linearGradient id="bgGrad" x1="0" y1="0" x2="0" y2="512" gradientUnits="userSpaceOnUse">
      <stop offset="0%" stop-color="#0C0C0C"/>
      <stop offset="100%" stop-color="#000000"/>
    </linearGradient>

    <!-- Orange accent gradient -->
    <linearGradient id="accentGrad" x1="80" y1="210" x2="432" y2="210" gradientUnits="userSpaceOnUse">
      <stop offset="0%" stop-color="#FF7A00"/>
      <stop offset="100%" stop-color="#FFB347"/>
    </linearGradient>

    <!-- Clip path for header -->
    <clipPath id="headerClip">
      <rect x="80" y="110" width="352" height="95" rx="52"/>
    </clipPath>
  </defs>

  <!-- Background -->
  <rect width="512" height="512" rx="110" fill="url(#bgGrad)"/>

  <!-- Calendar Outline -->
  <rect x="80" y="110" width="352" height="320" rx="52"
        fill="none" stroke="#FFFFFF" stroke-width="16"/>

  <!-- Spiral Rings (subtle, premium) -->
  <g stroke="#FFFFFF" stroke-width="4" opacity="0.6" fill="none">
    <path d="M160 92 q0 -18 18 -18 q18 0 18 18"/>
    <path d="M232 92 q0 -18 18 -18 q18 0 18 18"/>
    <path d="M304 92 q0 -18 18 -18 q18 0 18 18"/>
  </g>

  <!-- White Header -->
  <rect x="80" y="110" width="352" height="95" rx="52"
        fill="#FFFFFF"/>

  <!-- Orange Accent (moved slightly down) -->
  <g clip-path="url(#headerClip)">
    <rect x="80" y="196" width="352" height="12"
          fill="url(#accentGrad)"/>
  </g>

  <!-- Black Squiggly Lines -->
  <g stroke="#000000" stroke-width="4.5" stroke-linecap="round" fill="none">
    <path d="M110 155 q12 -8 24 0 t24 0 t24 0 t24 0 t24 0"/>
    <path d="M110 173 q10 -6 20 0 t20 0 t20 0 t20 0"/>
  </g>

  <!-- Calendar Grid -->
  <g stroke="#FFFFFF" stroke-width="3" opacity="0.16">
    <!-- Vertical -->
    <line x1="126" y1="235" x2="126" y2="410"/>
    <line x1="172" y1="235" x2="172" y2="410"/>
    <line x1="218" y1="235" x2="218" y2="410"/>
    <line x1="264" y1="235" x2="264" y2="410"/>
    <line x1="310" y1="235" x2="310" y2="410"/>
    <line x1="356" y1="235" x2="356" y2="410"/>
    <line x1="402" y1="235" x2="402" y2="410"/>

    <!-- Horizontal -->
    <line x1="100" y1="275" x2="412" y2="275"/>
    <line x1="100" y1="315" x2="412" y2="315"/>
    <line x1="100" y1="355" x2="412" y2="355"/>
    <line x1="100" y1="395" x2="412" y2="395"/>
  </g>

  <!-- Branding -->
  <text x="256" y="325"
        text-anchor="middle"
        fill="#FFFFFF"
        font-family="Helvetica, Arial, sans-serif"
        font-size="58"
        font-weight="600"
        letter-spacing="1">
    form<tspan font-weight="800">*</tspan>
  </text>

  <text x="256" y="365"
        text-anchor="middle"
        fill="#FFFFFF"
        font-family="Helvetica, Arial, sans-serif"
        font-size="24"
        font-weight="400"
        letter-spacing="5"
        opacity="0.85">
    calendar
  </text>
    </svg>
  </g>
</svg>
